<svg version="1" xmlns="http://www.w3.org/2000/svg" width="346.667" height="346.667" viewBox="0 0 260.000000 260.000000"><path d="M149.5 77c-.2.4-11.8 36.6-21.7 68-1.1 3.4-1.1 3.4-5.8-9.5l-4.7-13H96.5l-.2 6.7c-.2 7.5-.8 7 7.9 7.1h3.7l4.5 12.1c2.4 6.7 5.4 14.7 6.6 17.8l2.1 5.8h11.7l3.8-11.3c2.1-6.1 3.9-11.4 3.9-11.7.1-1 20.6-63.5 22-67.4.8-2.2 1.3-4.2 1-4.5-.7-.7-13.6-.8-14-.1zM41.8 78.2c-.2.7-.4 24.7-.4 53.3l.1 52 21.8.2 21.7.1V171H56.3v-39.8c0-21.8.4-39.9.8-40.2.4-.3 6.8-.5 14.3-.4H85V77H63.6c-16.2 0-21.5.3-21.8 1.2zM181.9 80c-.1 1.6-.1 3.9-.1 5 0 6-.8 5.7 12.5 5.5 6.7-.1 13.1.1 14.2.3 2 .3 2 1.1 2 40v39.7l-14.3.3c-11.7.2-14.2.5-14.3 1.7 0 .8-.1 3.3-.1 5.5s.1 4.4.1 4.9c.1.6 9.1.9 21.9.8l21.7-.2.1-52c0-28.6-.2-52.6-.4-53.3-.3-.9-5.6-1.2-21.8-1.2H182l-.1 3z"/></svg>